<svg xmlns="http://www.w3.org/2000/svg" viewBox="0 0 41.742 40">
  <defs>
    <style>
      .cls-1 {
        fill: #ed1f24;
      }
    </style>
  </defs>
  <g id="support" transform="translate(0 -8.826)">
    <g id="Group_10" data-name="Group 10" transform="translate(0 8.826)">
      <path id="Path_22" data-name="Path 22" class="cls-1" d="M26.84,36.557V35.83a7.575,7.575,0,0,0,.593-.537,10.8,10.8,0,0,0,2.734-6.02A5.309,5.309,0,0,0,33.6,27.234c1.146-1.62,1.248-3.95.292-6.873a.79.79,0,0,0-.316-.411l-.435-.292a10.713,10.713,0,0,0-2.56-7.213c-2.125-2.394-5.388-3.6-9.71-3.618-4.314,0-7.584,1.225-9.71,3.587A10.713,10.713,0,0,0,8.6,19.626l-.435.292a.79.79,0,0,0-.316.411c-.956,2.939-.853,5.254.292,6.873a5.325,5.325,0,0,0,3.429,2.062,10.808,10.808,0,0,0,2.741,6.028,7.707,7.707,0,0,0,.593.537v.727C11.877,37.141-.2,39.978,0,48.036a.79.79,0,0,0,.79.79H40.95a.79.79,0,0,0,.79-.79C41.946,39.978,29.866,37.141,26.84,36.557ZM11.095,27.5A3.429,3.429,0,0,1,9.42,26.278l.04.008c-.79-1.153-.861-2.9-.158-5.206l.577-.387a.79.79,0,0,0,.348-.735,9.338,9.338,0,0,1,2.149-6.5c1.786-2.023,4.653-3.034,8.493-3.05s6.707,1.027,8.525,3.05a9.338,9.338,0,0,1,2.149,6.5.79.79,0,0,0,.348.735l.577.387c.7,2.3.656,4.053-.158,5.206a3.445,3.445,0,0,1-1.683,1.225,5.261,5.261,0,0,0,1.288-3.95,3.7,3.7,0,0,0-1.272-2.212c-.34-7.9-5.878-8.785-8.264-8.785a9.959,9.959,0,0,0-1.509.111,9.945,9.945,0,0,0-1.509-.111c-2.37,0-7.9.869-8.264,8.785a3.7,3.7,0,0,0-1.288,2.2A5.254,5.254,0,0,0,11.095,27.5Zm17.974-6.478a16.275,16.275,0,0,1-9.441-2.37.79.79,0,0,0-1.027.1c-1.58,1.7-4.464,2.094-5.854,2.181.427-5.586,3.808-6.8,6.652-6.8a7.637,7.637,0,0,1,1.351.111.788.788,0,0,0,.316,0,7.674,7.674,0,0,1,1.351-.111c2.82,0,6.218,1.248,6.613,6.881ZM13.022,27.653l.032.008a.79.79,0,0,0-.2-.529c-1.082-1.24-1.58-2.37-1.446-3.3a2.094,2.094,0,0,1,.719-1.335c1.043,0,4.74-.2,7.11-2.244a17.815,17.815,0,0,0,8.77,2.37,10.418,10.418,0,0,0,1.627-.087,2.086,2.086,0,0,1,.711,1.3,4.477,4.477,0,0,1-1.446,3.3.79.79,0,0,0-.2.529v.411l-4.6,2.465a2.275,2.275,0,1,0,.711,1.651q.005-.107,0-.213l3.626-1.944A8.691,8.691,0,0,1,26.327,34.2a7.039,7.039,0,0,1-5.238,1.959h-.4a7.055,7.055,0,0,1-5.23-1.951C12.967,31.722,13.022,27.692,13.022,27.653Zm10.215,4.535a.7.7,0,1,1-.7-.7A.7.7,0,0,1,23.238,32.188ZM20.077,47.2H1.606c.624-5.933,10.271-8.414,13.289-9.054v1.414c0,1.793,2.181,3.16,5.183,3.389Zm-3.6-7.64V36.833a9.552,9.552,0,0,0,4.2.885h.4a9.552,9.552,0,0,0,4.2-.885v2.726c0,.751-1.714,1.833-4.393,1.833S16.475,40.309,16.475,39.559Zm5.183,7.663V42.94c3-.205,5.183-1.58,5.183-3.389V38.168c3.042.632,12.641,3.113,13.289,9.054Z" transform="translate(0 -8.826)"/>
    </g>
  </g>
</svg>
